<svg xmlns="http://www.w3.org/2000/svg" width="655.359" height="655.359" fill-rule="evenodd" clip-rule="evenodd" image-rendering="optimizeQuality" shape-rendering="geometricPrecision" text-rendering="geometricPrecision" viewBox="0 0 6.827 6.827" id="mosque"><path d="M5.13 3.584a.247.247 0 0 0-.249.248v.064H2.58v-.622h3.233v.622h-.436v-.064a.247.247 0 0 0-.248-.248zm-1.398.877a.334.334 0 0 0-.572.237v.432h-.58V3.975H4.88v.273c0 .022.018.04.04.04h.416a.04.04 0 0 0 .04-.04v-.273h.436V5.13H3.83v-.432a.334.334 0 0 0-.098-.237zm-1.35-2.808c.032 0 .062.013.083.037a.136.136 0 0 1 .036.092v3.505h-.41v-.355a.334.334 0 0 0-.57-.236.334.334 0 0 0-.099.236v.355h-.409V1.782c0-.034.013-.067.036-.092a.113.113 0 0 1 .082-.037h1.252zm-.128 1.942V2.436h-.11l-.01-.026a.592.592 0 0 0-.05-.108.362.362 0 0 0-.08-.097l-.01-.009-.003-.013a.192.192 0 0 0-.033-.07.172.172 0 0 0-.094-.063l-.01-.003-.098-.109-.1.11-.01.003a.17.17 0 0 0-.092.065.198.198 0 0 0-.031.069l-.003.013-.01.008a.367.367 0 0 0-.08.096.607.607 0 0 0-.051.108l-.01.026h-.11v1.159h.995zm.372 1.996.139-.14a.118.118 0 0 1 .084-.034h3.005a.118.118 0 0 1 0 .236H2.898l-.14.14a.118.118 0 0 1-.083.034H.973a.118.118 0 0 1 0-.236h1.653zm-.243-4.017H1.08l.007-.046a.596.596 0 0 1 .197-.354A.71.71 0 0 1 1.757 1a.71.71 0 0 1 .472.175.596.596 0 0 1 .197.354l.007.047-.046-.001h-.004zm3.215 1.62H4.66l.01-.047a.427.427 0 0 1 .132-.225.486.486 0 0 1 .327-.124c.12 0 .238.043.327.124.066.06.113.138.132.225l.01.048zm-1.362 0H2.745l.004-.042a.88.88 0 0 1 .209-.503.706.706 0 0 1 .533-.25c.208 0 .396.095.532.25a.88.88 0 0 1 .21.503l.003.043z"></path><path fill="none" d="M0 0h6.827v6.827H0z"></path></svg>